# xmcd CD database file
# Copyright (C) 1993-1998 Ti Kan
#
# Track frame offsets:
#  187
#  15227
#  21547
#  31537
#
# Disc length: 641 seconds
#
# Revision: 1
# Processed by: cddbd v1.4b41PL1 Copyright (c) Steve Scherf et al.
# Submitted via: CDWizzard Release:4.35
#
DISCID=1e027f04
DTITLE=Black Flag - I Can See You
DYEAR=1900
DGENRE=
TTITLE0=I Can See You
TTITLE1=Kickin' and Stickin'
TTITLE2=Out Of This World
TTITLE3=You Let Me Down
EXTD=
EXTT0=
EXTT1=
EXTT2=
EXTT3=
PLAYORDER=
